<svg width="48px" height="48px" version="1.1" xmlns="http://www.w3.org/2000/svg" xmlns:xlink="http://www.w3.org/1999/xlink" x="0px" y="0px" viewBox="0 0 48 48" enable-background="new 0 0 48 48" xml:space="preserve">
<rect x="22" y="12" fill="#90A4AE" width="4" height="15.4"></rect>
<path fill="#455A64" d="M30,5H18c-0.6,0-1,0.5-1,1V12c0,0.6,0.5,1,1,1H30c0.6,0,1-0.5,1-1V6C31,5.5,30.5,5,30,5z"></path>
<rect x="19" y="7" fill="#CDDC39" width="5" height="2"></rect>
<rect x="22" y="25" fill="#78909C" width="4" height="3"></rect>
<path fill="#607D8B" d="M12,40.7c0,0.7-0.6,1.3-1.3,1.3h-0.4C9.6,42,9,41.4,9,40.7v-2.4c0-0.7,0.6-1.3,1.3-1.3h0.4
	c0.7,0,1.3,0.6,1.3,1.3V40.7z M39,38.3c0-0.7-0.6-1.3-1.3-1.3h-0.4c-0.7,0-1.3,0.6-1.3,1.3v2.4c0,0.7,0.6,1.3,1.3,1.3h0.4
	c0.7,0,1.3-0.6,1.3-1.3V38.3z"></path>
<polygon fill="#CFD8DC" points="12,27 36,27 41.8,36.5 6.2,36.5 "></polygon>
<path fill="#B0BEC5" d="M42,40v-3c0-0.5-0.5-1-1-1H7c-0.5,0-1,0.5-1,1v3H42z"></path>
</svg>