<svg width="48px" height="48px" version="1.1" xmlns="http://www.w3.org/2000/svg" xmlns:xlink="http://www.w3.org/1999/xlink" x="0px" y="0px" viewBox="0 0 48 48" enable-background="new 0 0 48 48" xml:space="preserve">
<path fill="#FFB74D" d="M31,26c4.8-3.6,9.8-4.8,13,1c0,9,1.2,17-7,17c-2-3-1-4-3-4s-2.3,1.8-8,2c-3.4,0.1-8-1-12-4c-2.8-2.1-8-7-9-9
	c-0.4-0.8,0.4-4.7,2.4-9.2C10.5,13,13,10.1,14.8,8C17.7,5.1,20,4,21,4s7,1,8,2s0.8,1.5,1,3s-0.2,2.1-0.7,3c-0.2,0.3-0.7,0.9-1.2,0.5
	c-0.3,0.5-1.3,0.8-1.7,0.1c-0.4,0.6-1.4,0.3-1.7-0.1c-0.4,0.6-1.2-0.1-1.5-0.3c-0.2-0.2-0.4-0.5-0.6-0.8c0,0-0.5-1.2,0-1.3
	c-1,0.2-1.4,0-2.1,0.7s-2.6,2.4-2.5,5.7c0.1,3.8-1,6.4-2,7.4c0,0,1,0,2,0C20.6,22.1,25,20,31,26z"></path>
<path fill="#F99D30" d="M35.5,30.6c-1.2,4.5,4.4,5.7,6,12c-1,1-2.5,1.4-4.5,1.4c-2-3-1-4-3-4s-2.3,1.8-8,2c-2.2,0.1-4.8-0.3-7.5-1.4
	l0,0c-0.4-0.2-0.8-0.4-1.2-0.6c-0.2-0.1-0.4-0.2-0.5-0.3c-0.3-0.2-0.6-0.3-0.9-0.5c-0.2-0.1-0.3-0.2-0.5-0.3
	c-0.5-0.3-0.9-0.6-1.3-0.9c-2.8-2.1-8-7-9-9c-0.4-0.8,0.4-4.7,2.4-9.2c3-6.8,5.5-9.7,7.3-11.8c0.4-0.4,0.7-0.7,1.1-1L16,6.9
	c0.3-0.3,0.6-0.5,0.9-0.8c-2,2-2.7,5.2-4.9,10.4c-2.8,6.5-5.7,9.6,0,15c2.3,2.1,5,6.1,10.4,7.9c2.1,0.5,3.4,0.5,3.4,0.5
	c5.3-0.1,8-2.3,8.3-5.6c-1-5-3.1-8.2-3.1-8.2c4.8-3.6,9.8-4.8,13,1C40.4,26.3,37.3,27.8,35.5,30.6z M26.1,36.1c0,0-8-4.8-5.1-10.1
	c2-4,4.6-3.2,5.6-3.2l0,0C22.9,21.1,20,22.5,18,24c-1,0-2,0-2,0S16,33,26.1,36.1z"></path>
</svg>