<svg width="48px" height="48px" version="1.1" xmlns="http://www.w3.org/2000/svg" xmlns:xlink="http://www.w3.org/1999/xlink" x="0px" y="0px" viewBox="0 0 48 48" enable-background="new 0 0 48 48" xml:space="preserve">
<g>
	<path fill="#FFCC80" d="M24.3,22.7c-1.1-1.1-3-1.1-4.2,0.1c-1.2,1.2-1.2,3-0.1,4.2l6.4,6.4c1.1,1.1,3,1.1,4.2-0.1
		c1.2-1.2,1.2-3,0.1-4.2L24.3,22.7z"></path>
	<path fill="#FFCC80" d="M20.2,35.6l7.9-7.9l0.6-0.6l1.1,1.1c0.8,0.8,2.9,1.3,4.3-0.1c1.4-1.4,0.6-3.4-0.1-4.2
		c-0.7-0.7-3.2-3.2-3.2-3.2s1.4-4.2,1.1-6.4c-0.1-1.9-1.2-3.2-3.5-3.5l-5-0.8c-4.2,0-7.8,0.5-10.8,3.5l-4.9,4.9
		C4.2,22,4,27.9,7.6,31.5c0,0,3.4,3.4,7.7,7.7L20.2,35.6z"></path>
	<path fill="#FFCC80" d="M20,26.9c-1.1-1.1-3-1.1-4.2,0.1c-1.2,1.2-1.2,3-0.1,4.2l5.1,5.1c1.1,1.1,3,1.1,4.2-0.1
		c1.2-1.2,1.2-3,0.1-4.2L20,26.9z"></path>
	<path fill="#FFCC80" d="M14.5,29.9c-1.1-1.1-3-1.1-4.2,0.1c-1.2,1.2-1.2,3-0.1,4.2l5.1,5.1c1.1,1.1,3,1.1,4.2-0.1
		c1.2-1.2,1.2-3,0.1-4.2L14.5,29.9z"></path>
</g>
<g>
	<path fill="#607D8B" d="M9.7,33.5c-2,1.9-3.5,3.1-3.5,3.1C4.7,38.2,4.6,40.6,6,42c1.4,1.4,3.8,1.4,5.3-0.1c0.1-0.1,1.4-1.3,3.3-3.3
		L9.7,33.5z M9,40.5c-0.8,0-1.5-0.7-1.5-1.5s0.7-1.5,1.5-1.5s1.5,0.7,1.5,1.5S9.8,40.5,9,40.5z"></path>
	<path fill="#607D8B" d="M42.5,10.5L38,15c0,0-1.7,0-3.4-1.6C33,11.7,33,10,33,10l4.6-4.6c-3.3-1-6.5-0.2-8.8,2.1
		c-3.5,3.5-0.4,7.9-1.3,8.8c-0.2,0.2-0.3,0.3-0.5,0.5l4.2,4.2c0.2-0.2,0.4-0.4,0.6-0.6c0.9-0.9,5.2,2.4,8.8-1.2
		C42.7,16.9,43.6,14.1,42.5,10.5z"></path>
</g>
<g>
	<g>
		<path fill="#F2A25A" d="M30,28.3l-3-3c-0.4-0.4-1-0.4-1.4,0c-0.4,0.4-0.4,1,0,1.4L30,28.3z"></path>
	</g>
	<g>
		<path fill="#F2A25A" d="M25.7,32.5l-3.2-3.1c-0.4-0.4-1-0.4-1.4,0s-0.4,1,0,1.4L25.7,32.5z"></path>
	</g>
	<g>
		<path fill="#F2A25A" d="M20.2,35.5L17.8,33c-0.4-0.4-1-0.4-1.4,0s-0.4,1,0,1.4L20.2,35.5z"></path>
	</g>
	<path fill="#F2A25A" d="M27.4,16.4c0.2-0.2,0.2-0.4,0.2-0.7l-3.1-1.2l2.5,2.5C27.1,16.7,27.3,16.5,27.4,16.4z"></path>
</g>
</svg>