<svg width="48px" height="48px" version="1.1" xmlns="http://www.w3.org/2000/svg" xmlns:xlink="http://www.w3.org/1999/xlink" x="0px" y="0px" viewBox="0 0 48 48" enable-background="new 0 0 48 48" xml:space="preserve">
<polygon style="fill:#D6D1D0;" points="17,45 42,45 42,20 37,20 37,25 32,25 32,30 27,30 27,35 22,35 22,40 17,40 17,45 17,45 "></polygon>
<path style="fill:#FFB74D;" d="M19.5,4C21.433,4,23,5.566,23,7.5S21.433,11,19.5,11C17.568,11,16,9.434,16,7.5S17.568,4,19.5,4"></path>
<polyline style="fill:none;stroke:#F9A825;stroke-width:4;stroke-linecap:round;stroke-linejoin:round;stroke-miterlimit:10;" points="
	8,36 12,32 14.813,21.906 "></polyline>
<path style="fill:#E64A19;" d="M10.215,30.957l2.671-9.587c0.297-1.064,1.4-1.685,2.464-1.39c1.063,0.297,1.686,1.399,1.39,2.463
	l-2.813,10.094L10.215,30.957z"></path>
<path style="fill:#7E8CCF;" d="M15.128,27.344c-0.195,0-0.393-0.02-0.593-0.059c-1.625-0.327-2.678-1.906-2.352-3.531l1.875-9.344
	c0.326-1.625,1.908-2.676,3.531-2.352c1.625,0.326,2.678,1.906,2.352,3.531l-1.875,9.344C17.781,26.359,16.529,27.344,15.128,27.344
	z"></path>
<path style="fill:#FFBA57;" d="M8.5,22c-0.186,0-0.374-0.035-0.557-0.107c-0.77-0.307-1.144-1.182-0.836-1.949l1.5-5.5
	c0.164-0.41,0.5-0.727,0.918-0.865l4.622-1.254C15.219,12.047,17,12,17,12l0,0c2.125,0.031,3.83,1.516,4,2.025L23,18h4.206
	c0.794,0,1.602,0.422,1.765,1.234c0.163,0.813-0.364,1.604-1.177,1.766h-5.45c-1,0-1.478-0.277-1.717-0.996l-2.197-4.203
	l-3.711-0.504l-3.584,0.906l-1.242,4.854C9.658,21.645,9.095,22,8.5,22z"></path>
<path style="fill:#7E8CCF;" d="M9.526,13.578l4.622-1.254C15.219,12.047,17,12,17,12l0,0c2.125,0.031,3.83,1.516,4,2.025L23,18
	l-2.373,2.004l-2.197-4.203l-3.711-0.504l-3.584,0.906L9.526,13.578z"></path>
<path style="fill:#FFBA57;" d="M22.998,35c-0.961,0-1.808-0.693-1.971-1.672l-0.784-4.707l-5.853-1.371
	c-1.071-0.268-1.723-1.354-1.455-2.426c0.269-1.072,1.358-1.726,2.426-1.455l7.124,1.689c0.772,0.195,1.356,0.828,1.487,1.613l1,6
	c0.182,1.09-0.555,2.119-1.644,2.301C23.218,34.992,23.107,35,22.998,35z"></path>
<path style="fill:#FF754C;" d="M22.486,25.059l-4.256-1.009l0.021-0.112l-5.883-1.18l-0.183,0.996
	c-0.303,1.511,0.593,2.97,2.026,3.431c0.06,0.021,0.117,0.049,0.181,0.065l0.127,0.03c0.006,0.001,0.011,0.004,0.017,0.005
	c0.003,0.001,0.006,0,0.009,0.001l5.699,1.335L22.486,25.059z"></path>
</svg>