<svg width="48px" height="48px" version="1.1" xmlns="http://www.w3.org/2000/svg" xmlns:xlink="http://www.w3.org/1999/xlink" x="0px" y="0px" viewBox="0 0 48 48" enable-background="new 0 0 48 48" xml:space="preserve">
<path fill="#4FC3F7" d="M29,31L29,31H19c0,0-11,1.986-11,13h32C40,33.025,29,31,29,31"></path>
<polygon fill="#FF9800" points="24,37 19,31 19,25 29,25 29,31 "></polygon>
<g>
	<path fill="#FFA726" d="M35,19c0,1.105-0.895,2-2,2s-2-0.895-2-2s0.895-2,2-2S35,17.895,35,19"></path>
	<path fill="#FFA726" d="M17,19c0,1.105-0.895,2-2,2s-2-0.895-2-2s0.895-2,2-2S17,17.895,17,19"></path>
</g>
<path fill="#FFB74D" d="M33,13c0-7.635-18-4.971-18,0v7c0,4.971,4.029,9,9,9c4.971,0,9-4.029,9-9V13z"></path>
<path fill="#424242" d="M24,4c-6.075,0-10,4.925-10,11v2.284L16,19v-5l12-4l4,4v5l2-1.741V15c0-4.025-1.038-8.015-6-9l-1-2H24z"></path>
<g>
	<path fill="#784719" d="M27,19c0,0.552,0.448,1,1,1s1-0.448,1-1s-0.448-1-1-1S27,18.448,27,19"></path>
	<path fill="#784719" d="M19,19c0,0.552,0.448,1,1,1s1-0.448,1-1s-0.448-1-1-1S19,18.448,19,19"></path>
</g>
<g>
	<path fill="#01579B" d="M17.463,32.28l5,6L24,40.124l1.537-1.844l5-6l0.538-0.662C29.85,31.157,29,31,29,31l-5,6l-5-6
		c0,0-0.879,0.159-2.14,0.636L17.463,32.28z"></path>
	<rect x="23" y="38" fill="#01579B" width="2" height="6"></rect>
</g>
</svg>