<svg width="48px" height="48px" version="1.1" xmlns="http://www.w3.org/2000/svg" xmlns:xlink="http://www.w3.org/1999/xlink" x="0px" y="0px" viewBox="0 0 48 48" enable-background="new 0 0 48 48" xml:space="preserve">
<path style="fill:#FFB74D;" d="M28,25H16c-2.209,0-4,1.791-4,4c0,2.208,1.791,4,4,4h25v9.5c0,1.381,1.119,2.5,2.5,2.5
	c1.381,0,2.5-1.119,2.5-2.5V30.541c0-1.466-1.061-2.716-2.507-2.959L28,25z"></path>
<path style="fill:#FFB74D;" d="M6.5,24c2.484,0,4.5,2.016,4.5,4.5S8.984,33,6.5,33C4.015,33,2,30.984,2,28.5S4.015,24,6.5,24"></path>
<path style="fill:#90A4AE;" d="M36,33H4c-1.104,0-2,0.895-2,2v2h36v-2C38,33.895,37.104,33,36,33"></path>
<rect x="4" y="37" style="fill:#607D8B;" width="4" height="7"></rect>
<rect x="32" y="37" style="fill:#607D8B;" width="4" height="7"></rect>
<rect x="31" y="43" style="fill:#607D8B;" width="6" height="2"></rect>
<rect x="3" y="43" style="fill:#607D8B;" width="6" height="2"></rect>
<polygon style="fill:#9575CD;" points="28,25 27,25 27,33 38,33 38,26.666 "></polygon>
<path style="fill:#FF754C;" d="M28,25H16c-2.209,0-4,1.79-4,4c0,2.208,1.791,4,4,4h12V25z"></path>
<circle style="fill:#FFB74D;" cx="14.5" cy="28.5" r="2.5"></circle>
<polygon style="fill:#FFB74D;" points="16,19 12,19 12,29 17,28.5 "></polygon>
<path style="fill:#F9A825;" d="M16.393,22.73L16,19h-4v3.809C12.65,22.929,13.316,23,14,23C14.822,23,15.621,22.902,16.393,22.73z"></path>
<path style="fill:#FF754C;" d="M14,3c4.97,0,9,4.029,9,9c0,4.971-4.03,9-9,9c-4.971,0-9-4.029-9-9C5,7.029,9.029,3,14,3"></path>
<path style="fill:#C93D18;" d="M14,5c3.866,0,7,3.133,7,7s-3.134,7-7,7c-3.866,0-7-3.133-7-7S10.134,5,14,5"></path>
<path style="fill:#B0BEC5;" d="M14,10c1.104,0,2,0.895,2,2c0,1.106-0.896,2-2,2s-2-0.894-2-2C12,10.895,12.896,10,14,10"></path>
<path style="fill:#455A64;" d="M14,11c0.552,0,1,0.449,1,1s-0.448,1-1,1s-1-0.449-1-1S13.448,11,14,11"></path>
</svg>