<svg xmlns="http://www.w3.org/2000/svg" xmlns:xlink="http://www.w3.org/1999/xlink" width="48px" height="48px" version="1.0" x="0px" y="0px" viewBox="0 0 48 48" enable-background="new 0 0 48 48" xml:space="preserve">
<g>
   <rect x="17.233" y="14.864" transform="matrix(0.6447 -0.7645 0.7645 0.6447 -5.7786 32.1417)" fill="#C5E1A5" width="28.904" height="14.846"/>
   <path fill="#388E3C" d="M35.388,7.158l10.584,8.926L27.983,37.415l-10.584-8.926L35.388,7.158 M35.268,5.749l-19.278,22.86   l12.113,10.215l19.278-22.86L35.268,5.749L35.268,5.749z">
   </path>
  </g>
  <g>
   <rect x="17.527" y="12.381" transform="matrix(0.5689 -0.8224 0.8224 0.5689 -2.5002 34.8386)" fill="#C5E1A5" width="28.903" height="14.846"/>
   <path fill="#388E3C" d="M34.222,4.391l11.387,7.876L29.735,35.217L18.348,27.34L34.222,4.391 M33.968,3L16.957,27.594   l13.032,9.014L47,12.014L33.968,3L33.968,3z">
   </path>
  </g>
  <ellipse transform="matrix(0.5656 -0.8247 0.8247 0.5656 -2.1139 34.9472)" fill="#388E3C" cx="32.114" cy="19.48" rx="5.34" ry="6.431"/>
  <ellipse transform="matrix(0.5656 -0.8247 0.8247 0.5656 6.303 36.1399)" fill="#388E3C" cx="37.455" cy="12.087" rx="1.37" ry="1.374"/>
  <path fill="#999999" d="M16.382,28.094l10.333,9.204l5.527-11.27c0.671-1.317,0.232-2.929-1.016-3.723  c-1.223-0.779-2.835-0.522-3.756,0.597l-4.479,5.444l-1.761-0.708l3.794-11.766L16.382,28.094z">
  </path>
  <path fill="#FFB74D" d="M6.786,30.017l2.789-0.873l6.46-9.98c0.417-0.644,1.049-1.119,1.784-1.339l7.411-2.221l-5.725,9.056  l2.914,1.753l5.461-4.458c1.123-0.917,2.754-0.852,3.8,0.152l0,0c1.067,1.023,1.182,2.69,0.265,3.85l-7.017,8.876  c-1.307,1.653-3.146,2.802-5.204,3.252L9.91,40.231L6.786,30.017z">
  </path>
  <rect x="2.911" y="29.403" transform="matrix(0.9586 -0.2848 0.2848 0.9586 -10.1639 3.4243)" fill="#7986CB" width="7.565" height="14.52"/>
  <path fill="#FFE0B2" d="M27.877,23.381c0,0,0.303,1.137,0.834,1.668c0.531,0.531,1.819,0.91,1.819,0.91  s1.659-1.682,0.372-2.988C29.566,21.614,27.877,23.381,27.877,23.381z">
  </path>
 </svg>